# xmcd
#
# Track frame offsets: 
#        182
#        13517
#        31935
#        46982
#        62660
#        80192
#        94750
#        108612
#        121975
#        143777
#        155862
#
# Disc length: 2395 seconds
#
# Revision: 0
# Processed by: cddbd v1.5.1PL0 Copyright (c) Steve Scherf et al.
# Submitted via: ExactAudioCopy v0.95a5
#
DISCID=9309590b
DTITLE=Mason, Dutch  - You Can't Have Everything
DYEAR=1992
DGENRE=Blues
TTITLE0=You Can't Have Everything
TTITLE1=Going, Going, Gone
TTITLE2=I Must Be Crazy
TTITLE3=Folsom Prison Blues
TTITLE4=Hock My Ring
TTITLE5=Sticks And Stones
TTITLE6=But I Was Cool
TTITLE7=Hallelujah, I Love Her So
TTITLE8=Blues in the Dark
TTITLE9=No Mo Do Yakomo
TTITLE10=Polk Salad Annie
EXTD=
EXTT0=
EXTT1=
EXTT2=
EXTT3=
EXTT4=
EXTT5=
EXTT6=
EXTT7=
EXTT8=
EXTT9=
EXTT10=
PLAYORDER=
